<svg width="725" height="253" viewBox="0 0 725 253" fill="none" xmlns="http://www.w3.org/2000/svg">
<path d="M0 0H105.544C165.868 0 237.498 42.0312 237.498 126C237.498 203.089 165.868 252.001 105.544 252.001H0V0ZM162.067 126.093C162.067 73.6475 116.848 63.1397 75.4312 63.1397V189.14C116.848 189.14 162.067 178.725 162.067 126.093ZM267.311 0H342.642V94.5701H343.342L402.967 0H489.603L410.47 115.679L497.106 252.28H410.47L343.442 143.668H342.742V252.28H267.411V0H267.311ZM517.914 0H627.16C676.18 0 709.994 27.4318 709.994 63.1397C709.994 86.945 700.89 107.31 680.582 113.261V113.912C697.589 119.863 725 141.251 725 175.192C725 225.592 683.583 252.28 638.364 252.28H517.914V0ZM616.255 100.893C629.06 100.893 639.965 93.1753 639.965 78.8549C640.365 67.0453 630.361 57.1884 617.656 56.8164H593.146V100.986H616.255V100.893ZM623.058 192.395C638.164 192.395 646.768 181.236 646.768 167.195C646.868 153.339 634.763 141.995 619.857 141.995H593.246V192.395H623.058Z" fill="#148DEA"/>
</svg>
