<svg xmlns="http://www.w3.org/2000/svg" viewBox="117.5 74.9 725 411.2"><path fill="#148DEA" d="M117.7 75.3h105.5c60.3 0 131.9 45.2 131.9 135.5 0 82.9-71.6 135.5-131.9 135.5H117.7v-271zm162 135.6c0-56.4-45.2-67.7-86.6-67.7v135.5c41.4 0 86.6-11.2 86.6-67.8zM384.9 75.3h75.3V177h.7l59.6-101.7h86.6L528 199.7l86.6 146.9H528l-67-116.8h-.7v116.8H385V75.3zm250.5 0h109.2c49 0 82.8 29.5 82.8 67.9 0 25.6-9.1 47.5-29.4 53.9v.7c17 6.4 44.4 29.4 44.4 65.9 0 54.2-41.4 82.9-86.6 82.9H635.4V75.3zm98.3 108.5c12.8 0 23.7-8.3 23.7-23.7.4-12.7-9.6-23.3-22.3-23.7h-24.5v47.5h23.1zm6.8 98.4c15.1 0 23.7-12 23.7-27.1.1-14.9-12-27.1-26.9-27.1h-26.6v54.2h29.8zM143.8 484.3h-26.1v-83.5h25.6c19.7 0 41.7 13.9 41.7 41.7 0 27.9-22.1 41.8-41.2 41.8zm-4.1-69h-6.4v54.5h6.4c13.9 0 29-8.7 29-27.2s-15.1-27.2-29-27.3zm90.1 69v-4.6h-.2c-3.8 4.6-9.6 6.4-16.6 6.4-11.6 0-22-9.8-22-26.1 0-16.2 10.4-26.1 22-26.1 7 0 12.8 1.7 16.6 6.4h.2v-4.6h14.6v48.6h-14.6zm-12.2-37.1c-7.1 0-12.8 5.7-12.8 12.8s5.7 12.8 12.8 12.8c7 0 12.2-4.6 12.2-12.8 0-8.1-5.2-12.8-12.2-12.8zm54 38.9c-7-.1-13.8-2.9-18.8-7.9l6.3-9.4c3.3 3.5 7.7 5.7 12.5 6.3 4.3 0 6.3-1.5 6.3-4.2 0-8.3-22.7-5.3-22.7-23 0-9.4 8.1-13.9 17.5-13.9 8.3 0 13.6 1.5 18.8 5.7l-6.3 8.3c-3.4-2.3-7.4-3.5-11.5-3.6-2.6 0-5.1.5-5.1 3.6 0 6.3 23.9 5.1 23.9 23-.2 11.7-9.5 15.1-20.9 15.1zm90.3-1.8l-15.3-20.9h-.2v20.9h-14.5v-84.6h14.5V453h.2l13.1-17.4H377l-18.5 23.2 20.9 25.6-17.5-.1zm56.9 0v-4.6h-.2c-3.8 4.6-9.6 6.4-16.6 6.4-11.6 0-22-9.8-22-26.1 0-16.2 10.4-26.1 22-26.1 7 0 12.8 1.7 16.6 6.4h.2v-4.6h14.5v48.6h-14.5zm-12.2-37.1c-7.1 0-12.8 5.7-12.8 12.8s5.7 12.8 12.8 12.8c7 0 12.2-4.6 12.2-12.8 0-8.1-5.3-12.8-12.2-12.8zm72.1 37.1v-26.6c0-7-2.3-10.4-9.3-10.4-5.5 0-9.9 4.5-9.9 10v27.1H445v-48.6h14.5v4.6h.2c4-4.4 9.7-6.7 15.7-6.4 11.4 0 17.7 6.4 17.7 19.1v31.3h-14.5l.1-.1zm59.8 0v-26.6c0-7-2.3-10.4-9.3-10.4-5.5 0-9.9 4.5-9.9 10v27.1h-14.5v-48.6h14.5v4.6h.2c4-4.4 9.7-6.7 15.7-6.4 11.4 0 17.7 6.4 17.7 19.1v31.3h-14.5v-.1zm84.4 0h-27.7v-83.5h25.6c13.9 0 25.6 8.5 25.6 20.9 0 9.3-4.6 16.2-10.4 18.5 8.4 3 13.9 10.9 13.9 19.7-.3 15.1-11.9 24.4-27 24.4zm-3.4-70h-8.7V434h8.7c5.8 0 11.6-2.9 11.6-9.8 0-7-5.7-9.9-11.6-9.9zm1.2 33h-9.8v23.2h9.8c8.1 0 12.8-4.6 12.8-11.6s-4.7-11.7-12.8-11.7v.1zm75.7 37v-4.6h-.2c-3.8 4.6-9.6 6.4-16.6 6.4-11.6 0-22-9.8-22-26.1 0-16.2 10.4-26.1 22-26.1 7 0 12.8 1.7 16.6 6.4h.2v-4.6h14.5v48.6h-14.5zm-12.2-37.1c-7.1 0-12.8 5.7-12.8 12.8s5.7 12.8 12.8 12.8c7 0 12.2-4.6 12.2-12.8 0-8.1-5.2-12.8-12.2-12.8zm72.2 37.1v-26.6c0-7-2.3-10.4-9.3-10.4-5.5 0-9.9 4.5-9.9 10v27.1h-14.5v-48.6h14.5v4.6h.2c4-4.4 9.7-6.7 15.7-6.4 11.4 0 17.7 6.4 17.7 19.1v31.3h-14.5l.1-.1zm56.1 0l-15.3-20.9h-.4v20.9h-14.5v-84.6h14.5V453h.2l13.1-17.4h17.4L809 458.8l20.9 25.6h-17.4v-.1z"/></svg>