<svg xmlns="http://www.w3.org/2000/svg" viewBox="0 0 141.73 147.4"><defs><style>.cls-1{fill:#fff;}.cls-2{fill:#c50e1f;}.cls-3{fill:#1a171b;}.cls-4{fill:#d10019;}.cls-5,.cls-7,.cls-8{fill:none;stroke-miterlimit:10;}.cls-5{stroke:#9e042d;stroke-width:0.15px;}.cls-6{fill:#0e151d;}.cls-7{stroke:#0e151d;stroke-width:0.1px;}.cls-8{stroke:#981c21;stroke-width:0.11px;}.cls-9{fill:#c10037;}.cls-10{fill:#292827;}.cls-11{fill:#e10c1a;}.cls-12{fill:#ffd717;}</style></defs><title>GSES2821_OnlineK_bu_PreisLeist_P1</title><g id="Ebene_2" data-name="Ebene 2"><rect class="cls-1" width="141.73" height="147.4"/></g><g id="Ebene_1" data-name="Ebene 1"><rect class="cls-2" width="141.73" height="51.02"/><path class="cls-3" d="M140.53,1.2v145H1.2V1.2H140.53m1.2-1.2H0V147.4H141.73V0Z"/><text></text><path class="cls-3" d="M36,61.73h2.56a2.53,2.53,0,0,1,2.82,2.64v0a2.63,2.63,0,0,1-2.88,2.7h-.9v2.34H36Zm2.49,3.93a1.18,1.18,0,0,0,1.29-1.23h0a1.15,1.15,0,0,0-1.31-1.24h-.87v2.49Z"/><path class="cls-3" d="M42.3,63.53h1.56v1a1.55,1.55,0,0,1,1.6-1.14v1.69h-.07c-1,0-1.53.59-1.53,1.83v2.48H42.3Z"/><path class="cls-3" d="M46.09,66.55v-.1a2.74,2.74,0,0,1,2.57-3c1.68,0,2.51,1.38,2.51,3.14,0,.09,0,.28,0,.51H47.64a1.26,1.26,0,0,0,1.28,1.19,1.72,1.72,0,0,0,1.23-.58l.8.95a2.72,2.72,0,0,1-2.1.95A2.77,2.77,0,0,1,46.09,66.55ZM49.67,66c-.07-.81-.42-1.32-1-1.32s-.95.48-1,1.32Z"/><path class="cls-3" d="M52.22,61.49h1.63v1.42H52.22Zm0,2h1.56v5.9H52.25Z"/><path class="cls-3" d="M54.68,68.73l.68-1.1a2.76,2.76,0,0,0,1.57.66c.44,0,.63-.21.63-.45v0c0-.34-.44-.48-1.08-.76-.84-.36-1.55-.78-1.55-1.78v0a1.83,1.83,0,0,1,2-1.8,3.48,3.48,0,0,1,1.95.64l-.63,1.12a2.67,2.67,0,0,0-1.34-.51c-.37,0-.57.19-.57.42v0c0,.31.44.48,1.07.77.86.41,1.56.84,1.56,1.77v0a1.83,1.83,0,0,1-2.08,1.84A3.57,3.57,0,0,1,54.68,68.73Z"/><path class="cls-3" d="M63.22,60.75h1.32l-4.14,10H59.08Z"/><path class="cls-3" d="M65.2,61.73h1.6V68h3.11v1.46H65.2Z"/><path class="cls-3" d="M70.59,66.55v-.1a2.74,2.74,0,0,1,2.57-3c1.68,0,2.51,1.38,2.51,3.14,0,.09,0,.28,0,.51H72.14a1.26,1.26,0,0,0,1.28,1.19,1.72,1.72,0,0,0,1.23-.58l.8.95a2.73,2.73,0,0,1-2.1.95A2.77,2.77,0,0,1,70.59,66.55ZM74.16,66c-.07-.81-.42-1.32-1-1.32s-.95.48-1,1.32Z"/><path class="cls-3" d="M76.71,61.49h1.63v1.42H76.71Zm0,2h1.56v5.9H76.75Z"/><path class="cls-3" d="M79.18,68.73l.68-1.1a2.75,2.75,0,0,0,1.57.66c.44,0,.63-.21.63-.45v0c0-.34-.44-.48-1.08-.76-.84-.36-1.55-.78-1.55-1.78v0a1.83,1.83,0,0,1,2-1.8,3.48,3.48,0,0,1,1.95.64l-.63,1.12a2.68,2.68,0,0,0-1.34-.51c-.37,0-.57.19-.57.42v0c0,.31.44.48,1.07.77.86.41,1.56.84,1.56,1.77v0a1.83,1.83,0,0,1-2.08,1.84A3.57,3.57,0,0,1,79.18,68.73Z"/><path class="cls-3" d="M84.69,68v-3.1H84.1V63.53h.59V62h1.56v1.51h1.17v1.32H86.25v2.78c0,.34.15.51.48.51a1.51,1.51,0,0,0,.67-.17v1.24a2.28,2.28,0,0,1-1.16.31C85.35,69.53,84.69,69.18,84.69,68Z"/><path class="cls-3" d="M88.41,67.55v-4H90v3.55c0,.69.31,1,.84,1s.86-.35.86-1V63.53h1.56v5.9H91.65v-.79a1.79,1.79,0,0,1-1.51.9C89,69.54,88.41,68.77,88.41,67.55Z"/><path class="cls-3" d="M94.47,63.53H96v.79a1.8,1.8,0,0,1,1.52-.9c1.1,0,1.74.77,1.74,2v4H97.73V65.88c0-.69-.31-1-.84-1s-.86.35-.86,1v3.55H94.47Z"/><path class="cls-3" d="M100.53,70.62l.48-1.21a3.46,3.46,0,0,0,1.67.43c1,0,1.45-.45,1.45-1.4v-.37a2,2,0,0,1-1.65.92c-1.17,0-2.2-.91-2.2-2.77v0c0-1.86,1-2.76,2.2-2.76a2,2,0,0,1,1.64.87v-.76h1.56v4.82a2.82,2.82,0,0,1-.67,2.06,3.09,3.09,0,0,1-2.24.7A5.2,5.2,0,0,1,100.53,70.62Zm3.62-4.41h0c0-.87-.5-1.43-1.16-1.43s-1.14.56-1.14,1.43h0c0,.89.48,1.44,1.14,1.44S104.15,67.09,104.15,66.21Z"/><path class="cls-3" d="M46.77,75.83H51c2.83,0,4.61,1.64,4.61,4.32v0c0,2.9-2.07,4.36-4.72,4.41H49.38v3.83H46.77Zm4.07,6.43a1.92,1.92,0,0,0,2.11-2v0a1.88,1.88,0,0,0-2.14-2H49.38v4.07Z"/><path class="cls-3" d="M57.14,75.43h2.56v13H57.14Z"/><path class="cls-3" d="M61.35,85.67v-.11c0-2.12,1.39-3.08,3.37-3.08a5.23,5.23,0,0,1,2,.4v-.29c0-1.12-.67-1.69-1.82-1.69a5.49,5.49,0,0,0-2.21.54l-.7-2a6.9,6.9,0,0,1,3.29-.77,3.49,3.49,0,0,1,3.93,3.91v5.85h-2.5v-1a3,3,0,0,1-2.5,1.22A2.75,2.75,0,0,1,61.35,85.67Zm5.42-.41v-.81a3.46,3.46,0,0,0-1.42-.31c-.94,0-1.53.47-1.53,1.35v0a1.14,1.14,0,0,0,1.24,1.21A1.53,1.53,0,0,0,66.77,85.26Z"/><path class="cls-3" d="M71.57,86V80.94h-1V78.78h1V76.31h2.56v2.47H76v2.16H74.13v4.56c0,.56.25.83.79.83a2.47,2.47,0,0,0,1.1-.27v2a3.71,3.71,0,0,1-1.89.5C72.65,88.59,71.57,88,71.57,86Z"/><path class="cls-3" d="M77.37,86.63l4.25-5.76H77.51V78.78h7.17v1.8l-4.27,5.76h4.27v2.09H77.37Z"/><path class="cls-3" d="M92.07,78.42l-1.93.52-.41-2.27,3.12-.94h1.8V88.43H92.07Z"/><path class="cls-4" d="M24.92,130.67a14.83,14.83,0,0,0,12.88-7.49c1.23-2.15-2.23-4.81-2.23-7.47a18.69,18.69,0,0,1,1.55-5.87,2.32,2.32,0,0,0,.77-1.38,14.86,14.86,0,1,0-13,22.21"/><path class="cls-5" d="M24.92,130.67a14.83,14.83,0,0,0,12.88-7.49c1.23-2.15-2.23-4.81-2.23-7.47a18.69,18.69,0,0,1,1.55-5.87,2.32,2.32,0,0,0,.77-1.38,14.86,14.86,0,1,0-13,22.21Z"/><path class="cls-6" d="M41.38,108.51v3.24h1.79v4.63c0,2.12-1.29,3.6-3.08,3.6-1.39,0-2.15-1-2.15-2.78v-8.69H32.22c0,.09-1.31,3-1.39,3.24h3v6c0,3.61,2,5.77,5.24,5.77A6.12,6.12,0,0,0,43.11,122l.13-.12v1.32h6V120H47.36V108.51Z"/><path class="cls-7" d="M41.38,108.51v3.24h1.79v4.63c0,2.12-1.29,3.6-3.08,3.6-1.39,0-2.15-1-2.15-2.78v-8.69H32.22c0,.09-1.31,3-1.39,3.24h3v6c0,3.61,2,5.77,5.24,5.77A6.12,6.12,0,0,0,43.11,122l.13-.12v1.32h6V120H47.36V108.51Z"/><path class="cls-6" d="M56.42,109.82l-.14.17v-1.48H50.17v3.24h2.14V120H50.55v3.25h7.91V120h-2v-3.69c0-2,.86-4.33,3.3-4.33a2.41,2.41,0,0,1,.77.16l.24.07L62.82,109s-.74-.33-1.16-.46a7.39,7.39,0,0,0-1.91-.27,4.21,4.21,0,0,0-3.33,1.58"/><path class="cls-7" d="M56.42,109.82l-.14.17v-1.48H50.17v3.24h2.14V120H50.55v3.25h7.91V120h-2v-3.69c0-2,.86-4.33,3.3-4.33a2.41,2.41,0,0,1,.77.16l.24.07L62.82,109s-.74-.33-1.16-.46a7.39,7.39,0,0,0-1.91-.27,4.21,4.21,0,0,0-3.33,1.58"/><path class="cls-6" d="M65.61,116c0-1,.26-4.29,3.58-4.29,2.08,0,3.22,1.38,3.22,3.88,0,1.3-.34,4.35-3.44,4.35-2.47,0-3.36-2-3.36-3.93m-4.3.11a7.63,7.63,0,0,0,1.76,5.08,7.47,7.47,0,0,0,5.82,2.31,7.8,7.8,0,0,0,5.84-2.24,7.68,7.68,0,0,0,2-5.35,8.47,8.47,0,0,0-1.63-5.2,7.09,7.09,0,0,0-5.84-2.55,7.6,7.6,0,0,0-7.93,8"/><path class="cls-7" d="M65.61,116c0-1,.26-4.29,3.58-4.29,2.08,0,3.22,1.38,3.22,3.88,0,1.3-.34,4.35-3.44,4.35-2.47,0-3.36-2-3.36-3.93m-4.3.11a7.63,7.63,0,0,0,1.76,5.08,7.47,7.47,0,0,0,5.82,2.31,7.8,7.8,0,0,0,5.84-2.24,7.68,7.68,0,0,0,2-5.35,8.47,8.47,0,0,0-1.63-5.2,7.09,7.09,0,0,0-5.84-2.55,7.6,7.6,0,0,0-7.93,8"/><path class="cls-1" d="M13.92,118.34h2.93v.05A9.32,9.32,0,0,0,20.13,123a9.24,9.24,0,0,0,12.53-1.41l0,0h0l-2.47-2.46h0l0,0a5.71,5.71,0,0,1-4.54,2.21,5.79,5.79,0,0,1-5-2.86l-.07-.12h6.13c0-.08,1-2.42,1.12-2.62H13.92ZM20.42,108h0a9.15,9.15,0,0,0-3.32,4.13l0,0H13.92v2.62H28.25c0-.09,1-2.42,1.13-2.62H21l.1-.13a5.83,5.83,0,0,1,4.54-2.21,5.76,5.76,0,0,1,3.95,1.56l.07.06h0l1.42-3.33h0L31,108A9.24,9.24,0,0,0,20.42,108"/><path class="cls-8" d="M13.92,118.34h2.93v.05A9.32,9.32,0,0,0,20.13,123a9.24,9.24,0,0,0,12.53-1.41l0,0h0l-2.47-2.46h0l0,0a5.71,5.71,0,0,1-4.54,2.21,5.79,5.79,0,0,1-5-2.86l-.07-.12h6.13c0-.08,1-2.42,1.12-2.62H13.92ZM20.42,108h0a9.15,9.15,0,0,0-3.32,4.13l0,0H13.92v2.62H28.25c0-.09,1-2.42,1.13-2.62H21l.1-.13a5.83,5.83,0,0,1,4.54-2.21,5.76,5.76,0,0,1,3.95,1.56l.07.06h0l1.42-3.33h0L31,108A9.24,9.24,0,0,0,20.42,108"/><path class="cls-9" d="M35.68,130l.44-.11,1.42-3.84h.52l1.37,3.84.44.11v.25H38.24V130l.5-.11-.34-1H36.92l-.35,1,.51.11v.25h-1.4ZM37,128.62H38.3l-.6-1.78h0Z"/><path class="cls-9" d="M40.16,130l.56-.12v-3.48l-.56-.11v-.25h1.49l1.08,3.08h0l1.1-3.08h1.55v.25l-.61.11v3.48l.61.11v.25H43.69V130l.48-.11v-3.4h0l-1.31,3.56h-.39l-1.27-3.56h0v3.4l.5.11v.25H40.16Z"/><path class="cls-9" d="M47,130.15l0-1h.31l.2.62a1.69,1.69,0,0,0,.84.19c.59,0,.9-.34.9-.74s-.3-.62-.8-.82l-.54-.22a1.13,1.13,0,0,1-.84-1.11c0-.6.45-1.11,1.39-1.11a3.51,3.51,0,0,1,1.09.15l0,.9h-.3l-.17-.54a1.43,1.43,0,0,0-.72-.16c-.45,0-.8.2-.8.62s.22.56.66.73l.54.21c.55.23,1,.48,1,1.17s-.45,1.27-1.54,1.27A3.55,3.55,0,0,1,47,130.15Z"/><path class="cls-9" d="M50.1,128.18a2,2,0,0,1,2-2.17,2,2,0,0,1,2,2.16,2,2,0,0,1-2,2.19A2,2,0,0,1,50.1,128.18Zm3.32.06c0-1.22-.44-1.89-1.33-1.89s-1.31.76-1.31,1.78S51.12,130,52.1,130,53.42,129.26,53.42,128.24Z"/><path class="cls-9" d="M54.25,130l.57-.12v-3.48l-.57-.12v-.25h1.42l1.93,3.13h0v-2.76l-.56-.12v-.25h1.51v.24l-.5.12v3.84h-.5l-2.27-3.68h0v3.32l.57.12v.24H54.25Z"/><path class="cls-9" d="M58.88,130l.57-.12v-3.48l-.57-.12v-.25H60.3l1.93,3.13h0v-2.76l-.56-.12v-.25H63.2v.24l-.5.12v3.84h-.5l-2.27-3.68h0v3.32l.57.12v.24H58.88Z"/><path class="cls-9" d="M64.39,130l.58-.11v-3.51H64l-.24.87h-.31l.07-1.2h3.53l.07,1.2h-.31l-.24-.87h-1v3.51l.58.11v.25H64.39Z"/><path class="cls-9" d="M66.89,130l.44-.11,1.42-3.84h.52l1.37,3.84.44.11v.25H69.45V130l.5-.11-.34-1H68.13l-.35,1,.51.11v.25h-1.4Zm1.35-1.41h1.27l-.6-1.78h0Z"/><path class="cls-9" d="M71,128.24a2,2,0,0,1,2.2-2.22,4.58,4.58,0,0,1,1.27.15l.05,1h-.29l-.27-.68a1.82,1.82,0,0,0-.82-.16c-1,0-1.46.66-1.46,1.76s.43,1.9,1.48,1.9a2.17,2.17,0,0,0,.7-.11v-1.18l-.59-.1v-.25H75v.25l-.47.1v1.45a4,4,0,0,1-1.3.19C71.86,130.36,71,129.76,71,128.24Z"/><g id="Ebene_1-2" data-name="Ebene 1"><path class="cls-10" d="M126.15,109.81a2.21,2.21,0,1,0,2.21-2.21,2.19,2.19,0,0,0-2.21,2.21Z"/><path class="cls-11" d="M126.15,114.87a2.21,2.21,0,1,0,2.21-2.21,2.21,2.21,0,0,0-2.21,2.21Z"/><path class="cls-12" d="M126.15,120a2.21,2.21,0,1,0,2.21-2.21,2.19,2.19,0,0,0-2.21,2.21Z"/><path class="cls-10" d="M92.48,125.19h.64a1.09,1.09,0,0,1,1.2,1.09c0,.82-.64,1.09-1.23,1.09h-.6Zm.45,1.8h0c.52,0,.86-.19.86-.71a.7.7,0,0,0-.79-.75h-.15V127Z"/><path class="cls-10" d="M95,126.65a.41.41,0,0,0,.41.37.4.4,0,0,0,.41-.22l.3.19a.86.86,0,0,1-.75.41.79.79,0,0,1-.82-.82.84.84,0,0,1,.82-.86.76.76,0,0,1,.79.75.47.47,0,0,1,0,.22H95Zm.71-.3a.31.31,0,0,0-.34-.3.37.37,0,0,0-.37.3Z"/><path class="cls-10" d="M97.64,127.36l0-.22a.61.61,0,0,1-.52.26.53.53,0,0,1-.45-.22,1,1,0,0,1-.15-.6v-.86h.45v.82a.93.93,0,0,0,0,.34.23.23,0,0,0,.22.11.4.4,0,0,0,.34-.22v-1.09H98v1.68Z"/><path class="cls-10" d="M98.91,126.13v.79c0,.11,0,.15.15.15a.34.34,0,0,0,.19,0l.15.34a.72.72,0,0,1-.37.11.5.5,0,0,1-.49-.34.64.64,0,0,1,0-.26v-.67h-.19v-.37h.19l.07-.37H99v.37h.41v.37h-.45Z"/><path class="cls-10" d="M100.49,126.2a.47.47,0,0,0-.34-.15c-.07,0-.15,0-.15.11s.11.15.26.22.49.19.49.49-.3.52-.64.52a1.08,1.08,0,0,1-.67-.26l.26-.26a.52.52,0,0,0,.37.19c.07,0,.22,0,.22-.15s-.15-.15-.3-.22-.41-.19-.41-.49.3-.49.6-.49a.76.76,0,0,1,.56.22Z"/><path class="cls-10" d="M102.43,127.21a.77.77,0,0,1-.6.19.8.8,0,0,1-.82-.86.82.82,0,0,1,.86-.86.92.92,0,0,1,.56.19l-.22.3a.42.42,0,0,0-.3-.11.44.44,0,0,0-.41.49.46.46,0,0,0,.41.49.42.42,0,0,0,.3-.11Z"/><path class="cls-10" d="M103.14,125.94a.6.6,0,0,1,.49-.22.53.53,0,0,1,.45.22,1,1,0,0,1,.15.6v.82h-.45v-.82a.93.93,0,0,0,0-.34.23.23,0,0,0-.22-.11.4.4,0,0,0-.34.22v1h-.45V125h.45v.9Z"/><path class="cls-10" d="M104.94,126.65a.41.41,0,0,0,.41.37.4.4,0,0,0,.41-.22l.3.19a.86.86,0,0,1-.75.41.79.79,0,0,1-.82-.82.84.84,0,0,1,.82-.86.76.76,0,0,1,.79.75.47.47,0,0,1,0,.22h-1.12Zm.75-.3a.31.31,0,0,0-.34-.3.37.37,0,0,0-.37.3Z"/><path class="cls-10" d="M107.33,126.2a.47.47,0,0,0-.34-.15c-.07,0-.15,0-.15.11s.11.15.26.22.49.19.49.49-.3.52-.64.52a1.08,1.08,0,0,1-.67-.26l.26-.26a.52.52,0,0,0,.37.19c.07,0,.22,0,.22-.15s-.15-.15-.3-.22-.41-.19-.41-.49.3-.49.6-.49a.76.76,0,0,1,.56.22Z"/><path class="cls-10" d="M109.73,126.09l.75,1.31H110l-.52-.94-.22.26v.64h-.45v-2.17h.45v.9l.75-.9h.52Z"/><path class="cls-10" d="M111.82,127.36l0-.22a.61.61,0,0,1-.52.26.53.53,0,0,1-.45-.22,1,1,0,0,1-.15-.6v-.86h.45v.82a.93.93,0,0,0,0,.34.23.23,0,0,0,.22.11.4.4,0,0,0,.34-.22v-1.09h.45v1.68Z"/><path class="cls-10" d="M113,125.75l0,.22a.61.61,0,0,1,.52-.26.53.53,0,0,1,.45.22,1,1,0,0,1,.15.6v.82h-.45v-.82a.93.93,0,0,0,0-.34.23.23,0,0,0-.22-.11.4.4,0,0,0-.34.22v1h-.45v-1.65H113Z"/><path class="cls-10" d="M115.75,127.36l0-.19a.55.55,0,0,1-.49.22.78.78,0,0,1-.75-.86.83.83,0,0,1,.79-.86.67.67,0,0,1,.49.19V125h.45v2.36Zm-.07-1.09a.52.52,0,0,0-.37-.19.43.43,0,0,0-.41.49.46.46,0,0,0,.41.49.36.36,0,0,0,.37-.22Z"/><path class="cls-10" d="M116.91,126.65a.41.41,0,0,0,.41.37.4.4,0,0,0,.41-.22l.3.19a.86.86,0,0,1-.75.41.79.79,0,0,1-.82-.82.84.84,0,0,1,.82-.86.76.76,0,0,1,.79.75.47.47,0,0,1,0,.22h-1.12Zm.71-.3a.31.31,0,0,0-.34-.3.37.37,0,0,0-.37.3Z"/><path class="cls-10" d="M118.78,125.75l0,.22a.61.61,0,0,1,.52-.26.53.53,0,0,1,.45.22,1,1,0,0,1,.15.6v.82h-.45v-.82a.93.93,0,0,0,0-.34.23.23,0,0,0-.22-.11.4.4,0,0,0-.34.22v1h-.45v-1.65h.34Z"/><path class="cls-10" d="M120.31,125.53v-.37h.45v.37Zm0,1.83v-1.65h.45v1.65Z"/><path class="cls-10" d="M121.55,125.75l0,.22a.61.61,0,0,1,.52-.26.53.53,0,0,1,.45.22,1,1,0,0,1,.15.6v.82h-.45v-.82a.93.93,0,0,0,0-.34.23.23,0,0,0-.22-.11.4.4,0,0,0-.34.22v1h-.45v-1.65h.34Z"/><path class="cls-10" d="M124,126.2a.47.47,0,0,0-.34-.15c-.07,0-.15,0-.15.11s.11.15.26.22.49.19.49.49-.3.52-.64.52a1.08,1.08,0,0,1-.67-.26l.26-.26a.52.52,0,0,0,.37.19c.07,0,.22,0,.22-.15s-.15-.15-.3-.22-.41-.19-.41-.49.3-.49.6-.49a.76.76,0,0,1,.56.22Z"/><path class="cls-10" d="M125.07,126.13v.79c0,.11,0,.15.15.15a.34.34,0,0,0,.19,0l.15.34a.72.72,0,0,1-.37.11.5.5,0,0,1-.49-.34.64.64,0,0,1,0-.26v-.67h-.19v-.37h.19l.07-.37h.37v.37h.41v.37h-.45Z"/><path class="cls-10" d="M125.78,125.53v-.37h.45v.37Zm0,1.83v-1.65h.45v1.65Z"/><path class="cls-10" d="M127.09,126.13v.79c0,.11,0,.15.15.15a.34.34,0,0,0,.19,0l.15.34a.72.72,0,0,1-.37.11.5.5,0,0,1-.49-.34.64.64,0,0,1,0-.26v-.67h-.22v-.37h.19l.07-.37h.37v.37h.41v.37h-.41Z"/><path class="cls-10" d="M128.92,127.36l0-.22a.61.61,0,0,1-.52.26.53.53,0,0,1-.45-.22,1,1,0,0,1-.15-.6v-.86h.45v.82a.93.93,0,0,0,0,.34.23.23,0,0,0,.22.11.4.4,0,0,0,.34-.22v-1.09h.45v1.68Z"/><path class="cls-10" d="M130.19,126.13v.79c0,.11,0,.15.15.15a.34.34,0,0,0,.19,0l.15.34a.72.72,0,0,1-.37.11.5.5,0,0,1-.49-.34.64.64,0,0,1,0-.26v-.67h-.19v-.37h.19l.07-.37h.37v.37h.41v.37h-.45Z"/><path class="cls-10" d="M92.52,130.06v-.79c0-.37.07-.52.49-.52v.19c-.22,0-.26.07-.26.3v.86c0,.19,0,.3.26.3v.19C92.59,130.58,92.52,130.43,92.52,130.06Z"/><path class="cls-10" d="M93.23,128.9h.52c.3,0,.52.19.52.6v.41a.53.53,0,0,1-.52.6h-.52Zm.49,1.38c.19,0,.34-.11.34-.41v-.3c0-.34-.15-.41-.34-.41h-.26v1.16h.26Z"/><path class="cls-10" d="M94.57,128.9h.22v.67h.15l.41-.67h.26l-.49.79.49.79h-.26l-.41-.71H94.8v.71h-.22Z"/><path class="cls-10" d="M95.85,128.9h.22v1.57h-.22Z"/><path class="cls-10" d="M96.33,130.39c.22,0,.26-.07.26-.3v-.86c0-.19,0-.3-.26-.3v-.19c.37,0,.49.15.49.52v.79c0,.37-.07.52-.49.52Z"/><path class="cls-10" d="M97.53,129.94v-.52a.52.52,0,0,1,.52-.56.51.51,0,0,1,.52.52h-.19a.31.31,0,0,0-.3-.34c-.19,0-.3.11-.3.41v.49a.31.31,0,0,0,.3.34c.19,0,.3-.11.3-.34v-.07h-.3v-.19h.52v.26a.52.52,0,0,1-.52.56A.53.53,0,0,1,97.53,129.94Z"/><path class="cls-10" d="M98.88,129.23h.19v.15a.29.29,0,0,1,.3-.15.3.3,0,0,1,.3.19c0-.11.15-.19.34-.19s.34.15.34.45v.82h-.22v-.9a.22.22,0,0,0-.45,0v.86h-.15v-.86a.22.22,0,0,0-.45,0v.86h-.22v-1.23Z"/><path class="cls-10" d="M100.82,130.32v.19h-.19v-1.68h.22v.6a.37.37,0,0,1,.34-.19c.26,0,.41.19.41.49v.3c0,.34-.15.49-.41.49S100.86,130.39,100.82,130.32Zm.52-.34v-.26c0-.22-.07-.34-.26-.34s-.26.11-.26.34V130c0,.22.11.34.26.34S101.35,130.21,101.35,130Z"/><path class="cls-10" d="M101.83,128.9h.22v.67h.6v-.67h.22v1.57h-.22v-.71h-.6v.71h-.22Z"/><path class="cls-10" d="M103.44,130a.36.36,0,0,0,0-.67.48.48,0,0,1,.52-.45.49.49,0,0,1,.52.52h-.22c0-.22-.11-.34-.3-.34s-.3.07-.3.22a.26.26,0,0,0,.26.26h.15v.19H104c-.19,0-.3.07-.3.22a.31.31,0,0,0,.34.3.31.31,0,0,0,.34-.34v-.37h.37v.19h-.15V130a.52.52,0,0,1-.56.52A.49.49,0,0,1,103.44,130Z"/><path class="cls-10" d="M105.27,129.94v-.52a.52.52,0,0,1,.52-.56.5.5,0,0,1,.52.56h-.22a.3.3,0,1,0-.6,0V130a.31.31,0,0,0,.3.34c.22,0,.3-.19.3-.37h.22a.53.53,0,0,1-.52.6A.58.58,0,0,1,105.27,129.94Z"/><path class="cls-10" d="M106.55,130v-.3a.49.49,0,1,1,1,0v.3a.45.45,0,0,1-.49.49C106.7,130.5,106.55,130.32,106.55,130Zm.75,0v-.34a.26.26,0,1,0-.52,0V130a.26.26,0,1,0,.52,0Z"/><path class="cls-10" d="M107.71,130.36a.15.15,0,1,1,.15.15A.14.14,0,0,1,107.71,130.36Z"/><path class="cls-10" d="M108.57,128.9h.22v.67h.15l.41-.67h.26l-.49.79.49.79h-.26l-.41-.71h-.15v.71h-.22Z"/><path class="cls-10" d="M109.76,129.94v-.52a.52.52,0,0,1,.52-.56.51.51,0,0,1,.52.52h-.22a.31.31,0,0,0-.3-.34c-.19,0-.3.11-.3.41v.49a.31.31,0,0,0,.3.34c.19,0,.3-.11.3-.34v-.07h-.3v-.19h.52v.26a.53.53,0,1,1-1,0Z"/><path class="cls-10" d="M112.46,129.23h.22l.26.94.22-.94h.19l.22.94.26-.94h.22l-.37,1.27h-.19l-.22-.9-.22.9h-.19Z"/><path class="cls-10" d="M114.14,129.23h.22l.26.94.22-.94H115l.22.94.26-.94h.22l-.37,1.27h-.19l-.22-.9-.22.9h-.26Z"/><path class="cls-10" d="M115.79,129.23H116l.26.94.22-.94h.19l.22.94.26-.94h.22L117,130.5h-.19l-.22-.9-.26.86h-.19Z"/><path class="cls-10" d="M117.55,130.36a.15.15,0,1,1,.15.15A.14.14,0,0,1,117.55,130.36Z"/><path class="cls-10" d="M118,130v-.3c0-.3.15-.49.41-.49s.3.07.34.19v-.6H119v1.68h-.19v-.19a.37.37,0,0,1-.34.19A.44.44,0,0,1,118,130Zm.75,0v-.26c0-.22-.11-.34-.26-.34s-.26.11-.26.34V130c0,.22.07.34.26.34S118.74,130.21,118.74,130Z"/><path class="cls-10" d="M119.27,128.78h.22v1h.11l.37-.52h.26l-.45.64.45.64H120l-.37-.56h-.11v.56h-.22Z"/><path class="cls-10" d="M120.35,129.76h.6v.15h-.6Z"/><path class="cls-10" d="M121.14,128.9a.15.15,0,1,1,.15.15A.16.16,0,0,1,121.14,128.9Zm0,.34h.22v1.27h-.22Z"/><path class="cls-10" d="M121.66,129.23h.19v.19a.37.37,0,0,1,.34-.19c.26,0,.41.19.41.49v.79h-.22v-.75c0-.22-.07-.34-.26-.34s-.26.11-.26.34v.75h-.22v-1.27Z"/><path class="cls-10" d="M122.82,130.06H123a.24.24,0,0,0,.26.26c.15,0,.26-.07.26-.19s-.71-.11-.71-.56c0-.22.15-.37.45-.37a.4.4,0,0,1,.45.45h-.19c0-.19-.07-.26-.26-.26s-.22.07-.22.19c0,.3.71.11.71.56,0,.22-.15.37-.45.37S122.82,130.32,122.82,130.06Z"/><path class="cls-10" d="M124.06,130v-.6h-.11v-.15c.15,0,.22-.07.22-.26h.11v.22h.26v.19h-.26V130c0,.3,0,.34.3.34v.19C124.17,130.54,124.06,130.39,124.06,130Z"/><path class="cls-10" d="M124.77,128.9a.15.15,0,1,1,.15.15A.14.14,0,0,1,124.77,128.9Zm0,.34H125v1.27h-.22Z"/><path class="cls-10" d="M125.33,130v-.6h-.11v-.15c.15,0,.22-.07.22-.26h.11v.22h.26v.19h-.26V130c0,.3,0,.34.3.34v.19C125.4,130.54,125.33,130.39,125.33,130Z"/><path class="cls-10" d="M126,130v-.79h.22v.82a.24.24,0,0,0,.26.26.26.26,0,0,0,.26-.26v-.82H127v.82a.45.45,0,0,1-.49.49A.5.5,0,0,1,126,130Z"/><path class="cls-10" d="M127.27,130v-.6h-.11v-.15c.15,0,.22-.07.22-.26h.11v.22h.26v.19h-.26V130c0,.3,0,.34.3.34v.19C127.39,130.54,127.27,130.39,127.27,130Z"/><path class="cls-10" d="M127.95,130.36a.15.15,0,1,1,.15.15A.16.16,0,0,1,127.95,130.36Z"/><path class="cls-10" d="M128.43,130v-.3c0-.3.15-.49.41-.49s.3.07.34.19v-.6h.22v1.68h-.19v-.19a.37.37,0,0,1-.34.19C128.58,130.5,128.43,130.32,128.43,130Zm.75,0v-.26c0-.22-.11-.34-.26-.34s-.26.11-.26.34V130c0,.22.07.34.26.34S129.18,130.21,129.18,130Z"/><path class="cls-10" d="M129.63,130v-.3a.49.49,0,1,1,1,0v.22h-.75v.15a.24.24,0,0,0,.26.26.25.25,0,0,0,.26-.22v0h.22a.44.44,0,0,1-.49.41A.45.45,0,0,1,129.63,130Zm.75-.26v-.07c0-.22-.11-.3-.26-.3a.27.27,0,0,0-.26.3v.11h.52Z"/><path class="cls-10" d="M92.48,107.61h4.23c3.74,0,8,1.95,8,7.18s-4.15,7.33-8.16,7.33h-4Zm3,12h.34c3.4,0,5.72-1.2,5.72-4.64,0-3.18-1.87-4.86-5.13-4.86h-.9v9.5Z"/><path class="cls-10" d="M113,113.48l5,8.64h-3.48L111,115.84l-1.57,1.83v4.45h-3V107.61h3v5.95l4.9-5.95h3.59Z"/><path class="cls-10" d="M120.17,122.12V107.61h3v14.52Z"/><path class="cls-10" d="M111.71,130.17a.26.26,0,1,0-.26-.26.26.26,0,0,0,.26.26Z"/></g><path class="cls-1" d="M19.5,16.73v-.25c0-3.55,2.33-6.05,5.52-6.05s5.51,2.46,5.51,6v.25c0,3.55-2.33,6.05-5.52,6.05S19.5,20.3,19.5,16.73Zm7.9,0v-.19c0-2.06-1-3.31-2.4-3.31s-2.38,1.24-2.38,3.3v.19c0,2.06,1,3.31,2.4,3.31S27.41,18.75,27.41,16.69Z"/><path class="cls-1" d="M31.79,13.34h3v1.22a2.9,2.9,0,0,1,2.43-1.41c1.72,0,2.72,1.17,2.72,3v6.34h-3V17.12c0-.85-.42-1.31-1.05-1.31s-1.1.46-1.1,1.31v5.42h-3Z"/><path class="cls-1" d="M41.38,10.23h3V22.54h-3Z"/><path class="cls-1" d="M45.89,10.23H49v2.33H45.89Zm.05,3.11h3v9.2h-3Z"/><path class="cls-1" d="M50.42,13.34h3v1.22a2.9,2.9,0,0,1,2.43-1.41c1.72,0,2.72,1.17,2.72,3v6.34h-3V17.12c0-.85-.42-1.31-1.05-1.31s-1.1.46-1.1,1.31v5.42h-3Z"/><path class="cls-1" d="M59.64,18.07v-.19c0-2.77,1.73-4.74,4.16-4.74,2.72,0,4.08,2.11,4.08,4.91,0,.12,0,.61,0,.85H62.53a1.73,1.73,0,0,0,1.77,1.5,2.72,2.72,0,0,0,1.89-.87l1.43,1.7a4.62,4.62,0,0,1-3.52,1.51A4.32,4.32,0,0,1,59.64,18.07Zm5.46-.85c-.08-1.14-.56-1.77-1.29-1.77s-1.19.6-1.31,1.77Z"/><path class="cls-1" d="M69,10.23h3v6.19l2.06-3.08h3.3L74.73,17l2.69,5.52H74.14l-1.46-3.18-.66.9v2.28H69Z"/><path class="cls-1" d="M78.1,13.34h3V15a2.36,2.36,0,0,1,2.45-1.8v3.26h-.2c-1.45,0-2.24.87-2.24,2.7v3.37h-3Z"/><path class="cls-1" d="M84.18,18.07v-.19c0-2.77,1.73-4.74,4.16-4.74,2.72,0,4.08,2.11,4.08,4.91,0,.12,0,.61,0,.85H87.07a1.73,1.73,0,0,0,1.77,1.5,2.71,2.71,0,0,0,1.89-.87l1.43,1.7a4.62,4.62,0,0,1-3.52,1.51A4.32,4.32,0,0,1,84.18,18.07Zm5.46-.85c-.08-1.14-.56-1.77-1.29-1.77S87.16,16,87,17.22Z"/><path class="cls-1" d="M93.3,18.12v-.31c0-3.13,1.6-4.66,3.43-4.66a3,3,0,0,1,2.46,1.29V10.23h3V22.54h-3V21.37a2.92,2.92,0,0,1-2.45,1.36C94.89,22.73,93.3,21.2,93.3,18.12Zm5.93-.07v-.22c0-1.27-.63-2.12-1.48-2.12s-1.5.85-1.5,2.12v.22c0,1.27.61,2.13,1.5,2.13S99.23,19.33,99.23,18.05Z"/><path class="cls-1" d="M103.63,10.23h3.08v2.33h-3.08Zm.05,3.11h3v9.2h-3Z"/><path class="cls-1" d="M108.65,20v-4.3h-.92v-2.4h.92V11.05h3v2.29h1.8v2.4h-1.8v3.62c0,.54.25.77.76.77a2.47,2.47,0,0,0,1-.24v2.35a4.23,4.23,0,0,1-2,.48C109.72,22.71,108.65,22,108.65,20Z"/><path class="cls-1" d="M114.26,18.07v-.19c0-2.77,1.73-4.74,4.17-4.74,2.72,0,4.08,2.11,4.08,4.91,0,.12,0,.61,0,.85h-5.34a1.73,1.73,0,0,0,1.77,1.5,2.72,2.72,0,0,0,1.89-.87l1.43,1.7a4.62,4.62,0,0,1-3.52,1.51A4.32,4.32,0,0,1,114.26,18.07Zm5.46-.85c-.08-1.14-.56-1.77-1.29-1.77s-1.19.6-1.31,1.77Z"/><path class="cls-1" d="M6.25,38.57v1H3.61V28.68H6.25v3.78a2.53,2.53,0,0,1,2.16-1.2c1.62,0,3,1.35,3,4.06v.27c0,2.76-1.4,4.11-3,4.11A2.57,2.57,0,0,1,6.25,38.57Zm2.6-3v-.19c0-1.12-.56-1.87-1.32-1.87s-1.32.75-1.32,1.88v.19c0,1.13.56,1.88,1.32,1.88S8.84,36.71,8.84,35.58Z"/><path class="cls-1" d="M12.22,35.61v-.23a3.94,3.94,0,1,1,7.87,0v.23a3.92,3.92,0,0,1-4,4.14A3.88,3.88,0,0,1,12.22,35.61Zm5.29,0v-.14c0-1.12-.54-1.92-1.36-1.92s-1.35.78-1.35,1.9v.14c0,1.13.54,1.92,1.37,1.92S17.51,36.69,17.51,35.57Z"/><path class="cls-1" d="M21.1,31.43h2.64v1.08a2.56,2.56,0,0,1,2.15-1.25c1.52,0,2.4,1,2.4,2.69v5.59H25.64V34.76c0-.75-.37-1.16-.93-1.16s-1,.41-1,1.16v4.78H21.1Z"/><path class="cls-1" d="M29.51,28.68h2.71v2.05H29.51Zm0,2.74h2.63v8.11H29.56Z"/><path class="cls-1" d="M33.94,37.34V33.54h-.81V31.43h.81v-2h2.63v2h1.59v2.12H36.56v3.19c0,.48.23.67.67.67a2.19,2.19,0,0,0,.9-.21v2.07a3.73,3.73,0,0,1-1.78.42C34.88,39.69,33.94,39.06,33.94,37.34Z"/><path class="cls-1" d="M38.81,37.25v-.1c0-1.74,1.13-2.56,2.77-2.56a4.48,4.48,0,0,1,1.68.31V34.7c0-.83-.48-1.26-1.41-1.26a4.89,4.89,0,0,0-1.92.45l-.6-1.95a7.05,7.05,0,0,1,3-.63,3.73,3.73,0,0,1,2.75.9,3.32,3.32,0,0,1,.82,2.47v4.86H43.25v-.83a2.48,2.48,0,0,1-2.07,1A2.28,2.28,0,0,1,38.81,37.25ZM40,28.73H42.2v2H40Zm3.29,8.07v-.6a2.3,2.3,0,0,0-.92-.2,1,1,0,0,0-1.05,1v.06a.83.83,0,0,0,.84.92A1.1,1.1,0,0,0,43.28,36.8Zm-.45-8.07H45v2H42.83Z"/><path class="cls-1" d="M47.5,37.34V33.54h-.81V31.43h.81v-2h2.63v2h1.59v2.12H50.12v3.19c0,.48.23.67.67.67a2.19,2.19,0,0,0,.9-.21v2.07a3.73,3.73,0,0,1-1.78.42C48.44,39.69,47.5,39.06,47.5,37.34Z"/><path class="cls-1" d="M52.15,38.61l1-1.75a4.34,4.34,0,0,0,2.35.89c.45,0,.66-.2.66-.45v0c0-.31-.37-.47-1.18-.78-1.43-.52-2.48-1.09-2.48-2.56v0c0-1.63,1.25-2.61,3-2.61a5.51,5.51,0,0,1,3,.87l-1,1.78a4.14,4.14,0,0,0-2-.69c-.42,0-.61.19-.61.42v0c0,.3.4.46,1.2.79,1.47.55,2.46,1.15,2.46,2.53v0c0,1.69-1.23,2.65-3.06,2.65A5.61,5.61,0,0,1,52.15,38.61Z"/><path class="cls-1" d="M59.44,37V31.43h2.64v4.78c0,.75.37,1.16.93,1.16s1-.41,1-1.16V31.43h2.64v8.11H64V38.48a2.55,2.55,0,0,1-2.15,1.23C60.32,39.71,59.44,38.67,59.44,37Z"/><path class="cls-1" d="M67.9,31.43h2.64v1.08a2.56,2.56,0,0,1,2.15-1.25c1.51,0,2.4,1,2.4,2.69v5.59H72.44V34.76c0-.75-.37-1.16-.93-1.16s-1,.41-1,1.16v4.78H67.9Z"/><path class="cls-1" d="M76,37.25v-.1c0-1.74,1.13-2.56,2.78-2.56a4.48,4.48,0,0,1,1.68.31V34.7c0-.83-.48-1.26-1.41-1.26a4.9,4.9,0,0,0-1.92.45l-.6-1.95a7.06,7.06,0,0,1,3-.63,3.73,3.73,0,0,1,2.75.9A3.32,3.32,0,0,1,83,34.68v4.86H80.39v-.83a2.48,2.48,0,0,1-2.07,1A2.28,2.28,0,0,1,76,37.25Zm4.47-.45v-.6a2.3,2.3,0,0,0-.92-.2,1,1,0,0,0-1.05,1v.06a.83.83,0,0,0,.84.92A1.1,1.1,0,0,0,80.42,36.8Z"/><path class="cls-1" d="M86.86,38.57v1H84.22V28.68h2.64v3.78A2.53,2.53,0,0,1,89,31.26c1.62,0,3,1.35,3,4.06v.27c0,2.76-1.39,4.11-3,4.11A2.57,2.57,0,0,1,86.86,38.57Zm2.59-3v-.19c0-1.12-.55-1.87-1.32-1.87s-1.32.75-1.32,1.88v.19c0,1.13.55,1.88,1.32,1.88S89.45,36.71,89.45,35.58Z"/><path class="cls-1" d="M93.08,28.68h2.64v3.81a2.55,2.55,0,0,1,2.15-1.23c1.51,0,2.4,1,2.4,2.69v5.59H97.63V34.76c0-.75-.37-1.16-.93-1.16s-1,.41-1,1.16v4.78H93.08Z"/><path class="cls-1" d="M101.14,37.25v-.1c0-1.74,1.13-2.56,2.77-2.56a4.48,4.48,0,0,1,1.68.31V34.7c0-.83-.48-1.26-1.41-1.26a4.89,4.89,0,0,0-1.92.45l-.6-1.95a7.05,7.05,0,0,1,3-.63,3.73,3.73,0,0,1,2.75.9,3.32,3.32,0,0,1,.83,2.47v4.86h-2.61v-.83a2.48,2.48,0,0,1-2.07,1A2.28,2.28,0,0,1,101.14,37.25Zm1.18-8.52h2.21v2h-2.21Zm3.29,8.07v-.6a2.3,2.3,0,0,0-.92-.2,1,1,0,0,0-1,1v.06a.83.83,0,0,0,.84.92A1.1,1.1,0,0,0,105.61,36.8Zm-.45-8.07h2.21v2h-2.21Z"/><path class="cls-1" d="M109.4,31.43H112v1.08a2.56,2.56,0,0,1,2.15-1.25c1.51,0,2.4,1,2.4,2.69v5.59h-2.64V34.76c0-.75-.37-1.16-.93-1.16s-1,.41-1,1.16v4.78H109.4Z"/><path class="cls-1" d="M117.79,41.1l.74-1.89a5.09,5.09,0,0,0,2.45.63c1.21,0,1.83-.58,1.83-1.74v-.4a2.64,2.64,0,0,1-2.19,1.17c-1.67,0-3-1.25-3-3.72V35c0-2.52,1.39-3.77,3-3.77a2.71,2.71,0,0,1,2.22,1.13v-1h2.63v6.46a3.93,3.93,0,0,1-.95,2.92,4.38,4.38,0,0,1-3.21,1A7.93,7.93,0,0,1,117.79,41.1Zm5-6v0c0-1-.52-1.67-1.32-1.67s-1.31.68-1.31,1.67v0c0,1,.53,1.65,1.31,1.65S122.8,36.09,122.8,35.1Z"/><path class="cls-1" d="M126.68,28.68h2.71v2.05h-2.71Zm0,2.74h2.63v8.11h-2.62Z"/><path class="cls-1" d="M130.67,41.1l.73-1.89a5.1,5.1,0,0,0,2.45.63c1.21,0,1.83-.58,1.83-1.74v-.4a2.64,2.64,0,0,1-2.19,1.17c-1.66,0-3-1.25-3-3.72V35c0-2.52,1.4-3.77,3-3.77a2.7,2.7,0,0,1,2.22,1.13v-1h2.63v6.46a3.92,3.92,0,0,1-.95,2.92,4.38,4.38,0,0,1-3.21,1A7.93,7.93,0,0,1,130.67,41.1Zm5-6v0c0-1-.53-1.67-1.32-1.67s-1.3.68-1.3,1.67v0c0,1,.53,1.65,1.3,1.65S135.68,36.09,135.68,35.1Z"/><path class="cls-3" d="M17.34,136.9h.52l1.87,4.93h-.56l-.48-1.29H16.49L16,141.83h-.54Zm1.18,3.17-.92-2.49-.93,2.49Z"/><path class="cls-3" d="M20.43,140.58v-2.39h.5v2.25c0,.65.31,1,.84,1a.94.94,0,0,0,.92-1v-2.23h.5v3.65h-.5v-.6a1.2,1.2,0,0,1-2.27-.66Z"/><path class="cls-3" d="M23.91,141.38l.27-.37a1.67,1.67,0,0,0,1.06.44c.4,0,.68-.22.68-.57h0c0-.32-.3-.49-.79-.69s-1-.48-1-1h0a1,1,0,0,1,1.13-1,2,2,0,0,1,1.15.39l-.25.38a1.6,1.6,0,0,0-.92-.34c-.39,0-.63.22-.63.51h0c0,.31.31.46.81.67s1,.52,1,1.07h0a1.08,1.08,0,0,1-1.18,1A2,2,0,0,1,23.91,141.38Z"/><path class="cls-3" d="M27.2,142.5l.2-.41a2.17,2.17,0,0,0,1.18.36,1,1,0,0,0,1.11-1.09v-.53a1.39,1.39,0,0,1-1.2.75,1.53,1.53,0,0,1-1.44-1.72v0a1.55,1.55,0,0,1,1.44-1.72,1.39,1.39,0,0,1,1.2.72v-.65h.5v3.17a1.53,1.53,0,0,1-.4,1.13,1.66,1.66,0,0,1-1.21.42A2.58,2.58,0,0,1,27.2,142.5Zm2.51-2.65v0a1.17,1.17,0,0,0-1.1-1.27c-.57,0-1,.47-1,1.27h0c0,.79.47,1.28,1,1.28A1.17,1.17,0,0,0,29.7,139.86Z"/><path class="cls-3" d="M31,140.77v0c0-.75.54-1.18,1.34-1.18a3,3,0,0,1,.94.15v-.22a.83.83,0,0,0-.93-.9,2,2,0,0,0-.93.25l-.16-.41a2.52,2.52,0,0,1,1.15-.29,1.39,1.39,0,0,1,1,.36,1.36,1.36,0,0,1,.35,1v2.35h-.5v-.53a1.26,1.26,0,0,1-1.11.61A1.12,1.12,0,0,1,31,140.77Zm2.29-.21v-.46a2.57,2.57,0,0,0-.88-.15c-.58,0-.9.3-.9.76v0a.73.73,0,0,0,.78.74A1,1,0,0,0,33.28,140.56Z"/><path class="cls-3" d="M35.25,141.15v.68h-.5v-5.06h.5v2.11a1.36,1.36,0,0,1,1.18-.77c.74,0,1.46.64,1.46,1.86V140c0,1.21-.71,1.86-1.46,1.86A1.35,1.35,0,0,1,35.25,141.15ZM37.38,140V140c0-.89-.48-1.41-1-1.41A1.26,1.26,0,0,0,35.23,140V140a1.25,1.25,0,0,0,1.11,1.4C36.91,141.45,37.38,140.93,37.38,140Z"/><path class="cls-3" d="M38.55,140v0c0-1.11.65-1.89,1.51-1.89s1.46.78,1.46,1.88c0,0,0,.15,0,.21H39.06a1.19,1.19,0,0,0,1.13,1.25,1.28,1.28,0,0,0,.95-.42l.29.32a1.65,1.65,0,0,1-1.25.55A1.69,1.69,0,0,1,38.55,140Zm2.47-.22c0-.69-.36-1.26-1-1.26s-.95.5-1,1.26Z"/><path class="cls-3" d="M43.92,141.42l1.58-1.77c.59-.63.81-1,.81-1.44a.84.84,0,0,0-.88-.88,1.32,1.32,0,0,0-1.1.7l-.36-.31a1.71,1.71,0,0,1,1.51-.87,1.3,1.3,0,0,1,1.38,1.31v0c0,.63-.3,1-1,1.77l-1.23,1.39H46.9v.49h-3Z"/><path class="cls-3" d="M47.57,140.53v0a1.28,1.28,0,0,1,.89-1.21,1.23,1.23,0,0,1-.75-1.13v0a1.47,1.47,0,0,1,2.91,0v0a1.22,1.22,0,0,1-.74,1.13,1.3,1.3,0,0,1,.89,1.21v0a1.62,1.62,0,0,1-3.2,0Zm2.67,0h0a1.08,1.08,0,0,0-2.15,0h0a1.09,1.09,0,0,0,2.15,0Zm-.13-2.32h0a.95.95,0,0,0-1.88,0h0a.94.94,0,0,0,1.88,0Z"/><path class="cls-3" d="M53.7,136.3h.46l-2.72,6.36H51Z"/><path class="cls-3" d="M54.43,141.42,56,139.66c.59-.63.81-1,.81-1.44a.84.84,0,0,0-.88-.88,1.32,1.32,0,0,0-1.1.7l-.36-.31a1.71,1.71,0,0,1,1.51-.87,1.3,1.3,0,0,1,1.38,1.31v0c0,.63-.3,1-1,1.77l-1.23,1.39h2.25v.49h-3Z"/><path class="cls-3" d="M58.85,137.46l-.8.28-.09-.46,1-.39h.39v4.93h-.52Z"/><path class="cls-3" d="M60.29,142.44c.34-.13.48-.32.46-.61h-.26v-.72h.63v.62a.86.86,0,0,1-.74,1Zm.2-4.25h.63v.71h-.63Z"/><path class="cls-3" d="M63.65,138.18h.55l1,3,1-3h.53l-1.34,3.68H65Z"/><path class="cls-3" d="M67.53,136.84h.56v.6h-.56Zm0,1.35h.5v3.65h-.5Z"/><path class="cls-3" d="M68.94,140v0c0-1.11.65-1.89,1.51-1.89s1.46.78,1.46,1.88c0,0,0,.15,0,.21H69.46a1.19,1.19,0,0,0,1.13,1.25,1.28,1.28,0,0,0,.95-.42l.29.32a1.65,1.65,0,0,1-1.25.55A1.69,1.69,0,0,1,68.94,140Zm2.46-.22c0-.69-.36-1.26-1-1.26s-.95.5-1,1.26Z"/><path class="cls-3" d="M72.73,138.18h.5v.8a1.29,1.29,0,0,1,1.25-.85v.55h0c-.68,0-1.23.48-1.23,1.42v1.74h-.5Z"/><path class="cls-3" d="M78.58,136.9h.52L81,141.83h-.56l-.48-1.29H77.72l-.48,1.29h-.54Zm1.18,3.17-.92-2.49-.93,2.49Z"/><path class="cls-3" d="M81.71,138.18h.5v.59a1.2,1.2,0,0,1,2.27.67v2.39H84v-2.25c0-.65-.31-1-.84-1a1,1,0,0,0-.92,1v2.22h-.5Z"/><path class="cls-3" d="M86,141.15v.68h-.5v-5.06H86v2.11a1.36,1.36,0,0,1,1.18-.77c.74,0,1.46.64,1.46,1.86V140c0,1.21-.71,1.86-1.46,1.86A1.35,1.35,0,0,1,86,141.15ZM88.1,140V140c0-.89-.48-1.41-1-1.41A1.26,1.26,0,0,0,86,140V140a1.25,1.25,0,0,0,1.11,1.4C87.64,141.45,88.1,140.93,88.1,140Z"/><path class="cls-3" d="M89.48,136.84H90v.6h-.56Zm0,1.35H90v3.65h-.5Z"/><path class="cls-3" d="M90.9,140v0c0-1.11.65-1.89,1.51-1.89s1.46.78,1.46,1.88c0,0,0,.15,0,.21H91.41a1.19,1.19,0,0,0,1.13,1.25,1.28,1.28,0,0,0,.95-.42l.29.32a1.65,1.65,0,0,1-1.25.55A1.69,1.69,0,0,1,90.9,140Zm2.46-.22c0-.69-.36-1.26-1-1.26s-.95.5-1,1.26Z"/><path class="cls-3" d="M94.84,141v-2.35H94.4v-.45h.44v-1.06h.5v1.06h1v.45h-1v2.27a.46.46,0,0,0,.53.53,1.09,1.09,0,0,0,.43-.1v.43a1.23,1.23,0,0,1-.55.13A.82.82,0,0,1,94.84,141Z"/><path class="cls-3" d="M96.91,140v0c0-1.11.65-1.89,1.51-1.89s1.46.78,1.46,1.88c0,0,0,.15,0,.21H97.42a1.19,1.19,0,0,0,1.13,1.25,1.28,1.28,0,0,0,.95-.42l.29.32a1.65,1.65,0,0,1-1.25.55A1.69,1.69,0,0,1,96.91,140Zm2.46-.22c0-.69-.36-1.26-1-1.26s-.95.5-1,1.26Z"/><path class="cls-3" d="M100.69,138.18h.5v.8a1.29,1.29,0,0,1,1.25-.85v.55h0c-.68,0-1.23.48-1.23,1.42v1.74h-.5Z"/><path class="cls-3" d="M105,136.84h.56v.6H105Zm0,1.35h.5v3.65H105Z"/><path class="cls-3" d="M106.58,138.18h.5v.58a1.14,1.14,0,0,1,1-.65,1.05,1.05,0,0,1,1,.67,1.27,1.27,0,0,1,1.12-.67c.71,0,1.16.49,1.16,1.34v2.38h-.5v-2.25c0-.67-.29-1-.79-1s-.86.38-.86,1v2.23h-.5v-2.26c0-.65-.29-1-.79-1a.93.93,0,0,0-.86,1v2.22h-.5Z"/><path class="cls-3" d="M115.33,137.42H114v-.49h3.28v.49h-1.38v4.41h-.53Z"/><path class="cls-3" d="M117.82,140v0c0-1.11.65-1.89,1.51-1.89s1.46.78,1.46,1.88c0,0,0,.15,0,.21h-2.45a1.19,1.19,0,0,0,1.13,1.25,1.28,1.28,0,0,0,.95-.42l.29.32a1.65,1.65,0,0,1-1.25.55A1.69,1.69,0,0,1,117.82,140Zm2.46-.22c0-.69-.36-1.26-1-1.26s-.95.5-1,1.26Z"/><path class="cls-3" d="M121.28,141.38l.27-.37a1.67,1.67,0,0,0,1.06.44c.4,0,.68-.22.68-.57h0c0-.32-.3-.49-.79-.69s-1-.48-1-1h0a1,1,0,0,1,1.13-1,2,2,0,0,1,1.15.39l-.25.38a1.6,1.6,0,0,0-.92-.34c-.38,0-.63.22-.63.51h0c0,.31.32.46.81.67s1,.52,1,1.07h0a1.08,1.08,0,0,1-1.18,1A2,2,0,0,1,121.28,141.38Z"/><path class="cls-3" d="M124.76,141v-2.35h-.44v-.45h.44v-1.06h.5v1.06h1v.45h-1v2.27a.46.46,0,0,0,.53.53,1.09,1.09,0,0,0,.43-.1v.43a1.23,1.23,0,0,1-.55.13A.82.82,0,0,1,124.76,141Z"/></g></svg>