<svg width="343" height="272" viewBox="0 0 343 272" fill="none" xmlns="http://www.w3.org/2000/svg"><path d="M261.5 132c0 49.706-40.294 90-90 90s-90-40.294-90-90 40.294-90 90-90 90 40.294 90 90z" fill="#D8ECFC"/><mask id="a" style="mask-type:alpha" maskUnits="userSpaceOnUse" x="81" y="42" width="181" height="180"><path d="M261.5 132c0 49.706-40.294 90-90 90s-90-40.294-90-90 40.294-90 90-90 90 40.294 90 90z" fill="#fff"/></mask><g mask="url(#a)"><path d="M166.736 192.83l18.46 28.909c17.269-2.381 35.934-8.072 55.142-29.505 19.208-21.432 21.747-45.841 21.747-45.841S185.196 94.76 175.668 87.63c-.831-.623-1.876-1.201-3.068-1.738-9.684-4.358-19.156 8.397-11.224 15.457 10.719 9.539 17.865 17.063 30.965 27.184 12.013 9.281 14.292 11.906 16.079 14.288 1.786 2.381-13.101 40.247-13.101 40.247-9.174-11.661-29.701-37.759-40.12-51.007-3.574-4.543-10.036-5.539-14.824-2.302a11.024 11.024 0 00-3.22 14.9l29.581 48.171z" fill="#148DEA"/></g><path d="M169.905 181.113c0 11.43-6.551 11.708.595 10.121l31.561-2.382 27.392-14.288-25.01-37.507-11.842-3.536a20.996 20.996 0 00-14.153.765l-37.722 15.87s22.99 4.762 23.224 11.311c.234 6.548-10.26 5.741-4.764 7.144-13.815 9.049 2.58 11.113 10.719 12.502z" fill="#148DEA"/><path d="M128.183 164.102a9.02 9.02 0 015.595-11.47l6.401-2.202c4.714-1.623 9.852.883 11.475 5.595a9.02 9.02 0 01-5.595 11.469l-6.401 2.203c-4.714 1.622-9.852-.883-11.475-5.595z" fill="#148DEA"/><path d="M136.52 178.39a9.02 9.02 0 015.595-11.469l6.401-2.203a9.03 9.03 0 0111.475 5.595 9.02 9.02 0 01-5.595 11.469l-6.402 2.203c-4.713 1.622-9.851-.883-11.474-5.595z" fill="#148DEA"/><path d="M148.429 190.297a9.022 9.022 0 015.596-11.47l6.401-2.202a9.03 9.03 0 0111.475 5.595 9.022 9.022 0 01-5.596 11.469l-6.401 2.203a9.03 9.03 0 01-11.475-5.595z" fill="#148DEA"/><path d="M176.436 101.541l-1.768 3.334a8.003 8.003 0 001.819 9.786l1.753 1.525m14.269-1.079l-1.768 3.334a8.002 8.002 0 001.82 9.786l1.753 1.525m-54.779 39.193l8.932-4.175m1.786 19.088l7.742-3.579m-17.269-37.578s1.04 3.132 4.763 4.176c4.075 1.143 10.124-3.866 10.124-3.866m17.864 12.814l12.286-5.036a1.995 1.995 0 011.611.042l9.327 4.395m-13.696 12.526l5.604-2.338a2.999 2.999 0 012.901.328l6.978 4.994" stroke="#000" stroke-width="2.5" stroke-linecap="round"/><path d="M205.038 139.121l10.911 9.858c8.885 8.028 6.127 22.613-5.076 26.841l-16.554 6.248m-24.414-30.174l29.177 37.085M153 158l8.5-5m-6.5 8l8.5-5" stroke="#000" stroke-width="2.5" stroke-linecap="round"/><path d="M80.527 88.6L40.493 17.507l103.311 29.918-22.079 13.81 2.467 28.998-19.568-18L80.527 88.6z" fill="#fff"/><path d="M40.493 17.507L80.527 88.6l24.097-16.366M40.493 17.507l103.311 29.918-22.079 13.81M40.493 17.506l81.232 43.727M40.493 17.507l72.164 49.271m0 0l11.535 23.455m-11.535-23.455l-8.033 5.456m19.568 18l-2.467-29m2.467 29l-19.568-18" stroke="#000" stroke-width="2.5" stroke-linejoin="round"/><path d="M95.27 96.21l10.734 14.316m4.756-10.736l17.865 20.28m11.91-51.283l11.909 9.513m-1.191-17.847l19.056 11.866" stroke="#000" stroke-width="2.5" stroke-linecap="round"/></svg>